<svg width="35" height="35" viewBox="0 0 35 35" fill="none" xmlns="http://www.w3.org/2000/svg">
<g id="blender-original 1" clip-path="url(#clip0_4_175)">
<path id="Vector" d="M18.1536 19.4945C18.2172 18.3701 18.7704 17.3774 19.6075 16.6758C20.4276 15.9861 21.5287 15.5643 22.7377 15.5643C23.9403 15.5643 25.0412 15.9858 25.8602 16.6758C26.6987 17.3774 27.2484 18.3701 27.3142 19.4945C27.3778 20.6476 26.9105 21.7238 26.0935 22.5209C25.2564 23.3293 24.0718 23.8401 22.7377 23.8401C21.4025 23.8401 20.2126 23.3325 19.3808 22.5209C18.5607 21.7241 18.0945 20.6537 18.1599 19.4998L18.1536 19.4945Z" fill="#DA4167"/>
<path id="Vector_2" d="M10.9734 21.8722C10.9808 22.3122 11.1229 23.1684 11.3339 23.8348C11.7797 25.2492 12.5365 26.5579 13.5843 27.7046C14.661 28.8881 15.9896 29.8397 17.5206 30.517C19.1304 31.2247 20.8777 31.5871 22.6908 31.5871C24.5039 31.5847 26.2513 31.216 27.8608 30.4997C29.3919 29.8153 30.721 28.8648 31.7971 27.6749C32.8505 26.5155 33.6049 25.2079 34.0479 23.7924C34.2697 23.0893 34.4115 22.3635 34.4707 21.6286C34.5258 20.9156 34.5025 20.1959 34.4009 19.4762C34.2021 18.0896 33.7128 16.7605 32.965 15.576C32.2828 14.4759 31.3969 13.519 30.3435 12.7098L30.3467 12.7087L19.7557 4.62244C19.7462 4.61501 19.7377 4.60759 19.7281 4.60123C19.0339 4.07056 17.861 4.07268 17.1013 4.60335C16.3289 5.14171 16.2398 6.03076 16.9274 6.59033L16.9242 6.59245L21.3461 10.1667L7.88342 10.1802H7.8654C6.75289 10.1812 5.68147 10.9062 5.4718 11.8271C5.25444 12.7604 6.01122 13.5394 7.17144 13.5394L7.16932 13.5437L13.9912 13.531L1.78466 22.8058C1.76981 22.8175 1.75285 22.8291 1.73801 22.8408C0.588922 23.7139 0.218087 25.1708 0.941731 26.0863C1.6781 27.0199 3.23884 27.0263 4.40012 26.0916L11.0423 20.6815C11.0423 20.6815 10.9447 21.4126 10.9532 21.847L10.9734 21.8722ZM28.0864 24.3159C26.7165 25.7017 24.7952 26.4921 22.7248 26.4921C20.649 26.4953 18.7278 25.7187 17.3576 24.3339C16.688 23.6556 16.1974 22.8832 15.8923 22.0567C15.594 21.2434 15.479 20.3744 15.5554 19.5115C15.6279 18.6696 15.8789 17.8528 16.2917 17.1155C16.6912 16.3961 17.2434 15.7424 17.9193 15.1892C19.2534 14.1136 20.9464 13.5246 22.7171 13.5246C24.4954 13.5225 26.1887 14.1009 27.5229 15.1776C28.1988 15.7276 28.7488 16.3781 29.1504 17.0975C29.5639 17.8348 29.8147 18.6521 29.8857 19.4945C29.961 20.357 29.846 21.2255 29.5488 22.0387C29.2448 22.8715 28.7531 23.644 28.0822 24.3223L28.0864 24.3159Z" fill="#DA4167"/>
</g>
<defs>
<clipPath id="clip0_4_175">
<rect width="33.9291" height="33.9291" fill="white" transform="translate(0.570801 0.93103)"/>
</clipPath>
</defs>
</svg>
