<svg width="35" height="35" viewBox="0 0 35 35" fill="none" xmlns="http://www.w3.org/2000/svg">
<g id="csharp-plain" clip-path="url(#clip0_4_161)">
<path id="Vector" d="M32.0443 9.81148L32.1238 9.75846C31.9647 9.46687 31.7261 9.20178 31.4876 9.06924L18.6839 1.69984C18.4718 1.5673 18.1802 1.51428 17.8621 1.51428C17.544 1.51428 17.2524 1.59381 17.0404 1.69984L4.31624 9.09575C3.86559 9.36083 3.54749 10.0235 3.54749 10.5272V25.2925C3.54749 25.5841 3.6005 25.9022 3.78606 26.1938L3.73305 26.2203C3.86559 26.4324 4.05115 26.6179 4.23671 26.724L17.0139 34.1198C17.2259 34.2524 17.5175 34.3054 17.8356 34.3054C18.1537 34.3054 18.4453 34.2259 18.6574 34.1198L31.3815 26.724C31.8322 26.4589 32.1503 25.7962 32.1503 25.2925V10.5007C32.1768 10.2886 32.1503 10.0501 32.0443 9.81148ZM17.8621 28.3675C12.0833 28.3675 7.39124 23.6755 7.39124 17.8966C7.39124 12.1177 12.0833 7.4257 17.8621 7.4257C21.7589 7.4257 25.152 9.5729 26.9546 12.7274L23.5085 14.7156C22.3951 12.7274 20.2744 11.402 17.8621 11.402C14.2835 11.402 11.3675 14.3179 11.3675 17.8966C11.3675 21.4753 14.2835 24.3912 17.8621 24.3912C20.2744 24.3912 22.3951 23.0658 23.5085 21.1042L26.9281 23.1188C25.1255 26.2468 21.7324 28.3675 17.8621 28.3675ZM31.3815 17.3664H30.5333L30.2947 18.4268H31.3815V19.7522H30.0561L29.738 21.3427H28.4391L28.7572 19.7522H27.7499L27.4318 21.3427H26.1593L26.4774 19.7522H25.8147V18.4268H26.7425L26.9811 17.3664H25.8147V16.041H27.2197L27.5378 14.4505H28.8367L28.5186 16.041H29.5259L29.844 14.4505H31.1165L30.7983 16.041H31.3815V17.3664ZM28.0149 18.4268H29.0223L29.2608 17.3664H28.2535L28.0149 18.4268Z" fill="#DA4167"/>
</g>
<defs>
<clipPath id="clip0_4_161">
<rect width="33.931" height="33.931" fill="white" transform="translate(0.896606 0.93103)"/>
</clipPath>
</defs>
</svg>
