<svg width="35" height="34" viewBox="0 0 35 34" fill="none" xmlns="http://www.w3.org/2000/svg">
<g id="figma-original" clip-path="url(#clip0_4_163)">
<path id="Vector" d="M12.958 33.931C16.1125 33.931 18.6574 31.4059 18.6574 28.2758V22.6207H12.958C9.80349 22.6207 7.25867 25.1458 7.25867 28.2758C7.25867 31.4059 9.80349 33.931 12.958 33.931Z" fill="#DA4167"/>
<path id="Vector_2" d="M7.25867 16.9655C7.25867 13.8355 9.80349 11.3104 12.958 11.3104H18.6574V22.6207H12.958C9.80349 22.6207 7.25867 20.0956 7.25867 16.9655Z" fill="#DA4167"/>
<path id="Vector_3" d="M7.25867 5.65517C7.25867 2.5251 9.80349 0 12.958 0H18.6574V11.3103H12.958C9.80349 11.3103 7.25867 8.78524 7.25867 5.65517Z" fill="#DA4167"/>
<path id="Vector_4" d="M18.6573 0H24.3567C27.5112 0 30.0561 2.5251 30.0561 5.65517C30.0561 8.78524 27.5112 11.3103 24.3567 11.3103H18.6573V0Z" fill="#DA4167"/>
<path id="Vector_5" d="M30.0561 16.9655C30.0561 20.0956 27.5112 22.6207 24.3567 22.6207C21.2022 22.6207 18.6573 20.0956 18.6573 16.9655C18.6573 13.8355 21.2022 11.3104 24.3567 11.3104C27.5112 11.3104 30.0561 13.8355 30.0561 16.9655Z" fill="#DA4167"/>
</g>
<defs>
<clipPath id="clip0_4_163">
<rect width="33.931" height="33.931" fill="white" transform="translate(0.896606)"/>
</clipPath>
</defs>
</svg>
