<svg width="39" height="38" viewBox="0 0 39 38" fill="none" xmlns="http://www.w3.org/2000/svg">
<g id="Github" clip-path="url(#clip0_4_149)">
<path id="Icon" d="M14.625 30.0833C6.5 32.4583 6.5 26.125 3.25 25.3333M26 34.8333V28.7058C26.061 27.9509 25.9563 27.1919 25.6929 26.4793C25.4295 25.7668 25.0135 25.1171 24.4725 24.5733C29.575 24.0192 34.9375 22.135 34.9375 13.49C34.9371 11.2794 34.0644 9.15358 32.5 7.55251C33.2408 5.61848 33.1884 3.48073 32.3537 1.58335C32.3537 1.58335 30.4363 1.02918 26 3.92668C22.2755 2.94315 18.3495 2.94315 14.625 3.92668C10.1887 1.02918 8.27125 1.58335 8.27125 1.58335C7.43661 3.48073 7.38423 5.61848 8.125 7.55251C6.54896 9.16545 5.67535 11.3105 5.6875 13.5375C5.6875 22.1192 11.05 24.0033 16.1525 24.6208C15.6179 25.1591 15.2056 25.8011 14.9424 26.5049C14.6792 27.2087 14.5711 27.9586 14.625 28.7058V34.8333" stroke="#DA4167" stroke-width="4" stroke-linecap="round" stroke-linejoin="round"/>
</g>
<defs>
<clipPath id="clip0_4_149">
<rect width="39" height="38" fill="white"/>
</clipPath>
</defs>
</svg>
