<svg width="41" height="41" viewBox="0 0 41 41" fill="none" xmlns="http://www.w3.org/2000/svg">
<g id="Heart">
<path id="Icon" d="M35.6017 7.87542C34.7292 7.00247 33.6932 6.30998 32.5529 5.83752C31.4127 5.36506 30.1905 5.12189 28.9563 5.12189C27.722 5.12189 26.4999 5.36506 25.3596 5.83752C24.2194 6.30998 23.1834 7.00247 22.3109 7.87542L20.5 9.68626L18.6892 7.87542C16.9267 6.11295 14.5363 5.1228 12.0438 5.1228C9.55128 5.1228 7.16085 6.11295 5.39837 7.87542C3.6359 9.6379 2.64575 12.0283 2.64575 14.5208C2.64575 17.0134 3.6359 19.4038 5.39837 21.1663L20.5 36.2679L35.6017 21.1663C36.4747 20.2937 37.1671 19.2577 37.6396 18.1175C38.1121 16.9772 38.3552 15.7551 38.3552 14.5208C38.3552 13.2866 38.1121 12.0644 37.6396 10.9242C37.1671 9.78395 36.4747 8.74796 35.6017 7.87542Z" stroke="#832161" stroke-width="4" stroke-linecap="round" stroke-linejoin="round"/>
</g>
</svg>
