<svg width="39" height="38" viewBox="0 0 39 38" fill="none" xmlns="http://www.w3.org/2000/svg">
<g id="Instagram">
<path id="Icon" d="M28.4375 10.2917H28.4538M11.375 3.16666H27.625C32.1123 3.16666 35.75 6.71107 35.75 11.0833V26.9167C35.75 31.2889 32.1123 34.8333 27.625 34.8333H11.375C6.88769 34.8333 3.25 31.2889 3.25 26.9167V11.0833C3.25 6.71107 6.88769 3.16666 11.375 3.16666ZM26 18.0025C26.2005 19.3202 25.9695 20.666 25.3399 21.8484C24.7102 23.0309 23.7139 23.9897 22.4926 24.5886C21.2714 25.1876 19.8875 25.396 18.5377 25.1844C17.1878 24.9727 15.9409 24.3518 14.9741 23.4098C14.0074 22.4679 13.3701 21.2529 13.1529 19.9377C12.9357 18.6224 13.1496 17.274 13.7643 16.0841C14.379 14.8942 15.3631 13.9234 16.5766 13.3099C17.7901 12.6963 19.1714 12.4713 20.5238 12.6667C21.9032 12.866 23.1804 13.4923 24.1665 14.4531C25.1526 15.414 25.7954 16.6584 26 18.0025Z" stroke="#DA4167" stroke-width="4" stroke-linecap="round" stroke-linejoin="round"/>
</g>
</svg>
