<svg width="38" height="38" viewBox="0 0 38 38" fill="none" xmlns="http://www.w3.org/2000/svg">
<g id="Linkedin">
<g id="Icon">
<path d="M25.3333 12.6667C27.8528 12.6667 30.2692 13.6675 32.0508 15.4491C33.8324 17.2307 34.8333 19.6471 34.8333 22.1667V33.25H28.5V22.1667C28.5 21.3268 28.1663 20.5214 27.5725 19.9275C26.9786 19.3336 26.1731 19 25.3333 19C24.4934 19 23.688 19.3336 23.0941 19.9275C22.5003 20.5214 22.1666 21.3268 22.1666 22.1667V33.25H15.8333V22.1667C15.8333 19.6471 16.8342 17.2307 18.6158 15.4491C20.3974 13.6675 22.8137 12.6667 25.3333 12.6667Z" stroke="#DA4167" stroke-width="4" stroke-linecap="round" stroke-linejoin="round"/>
<path d="M9.49996 14.25H3.16663V33.25H9.49996V14.25Z" stroke="#DA4167" stroke-width="4" stroke-linecap="round" stroke-linejoin="round"/>
<path d="M6.33329 9.49999C8.08219 9.49999 9.49996 8.08222 9.49996 6.33332C9.49996 4.58442 8.08219 3.16666 6.33329 3.16666C4.58439 3.16666 3.16663 4.58442 3.16663 6.33332C3.16663 8.08222 4.58439 9.49999 6.33329 9.49999Z" stroke="#DA4167" stroke-width="4" stroke-linecap="round" stroke-linejoin="round"/>
</g>
</g>
</svg>
