<svg width="34" height="35" viewBox="0 0 34 35" fill="none" xmlns="http://www.w3.org/2000/svg">
<g id="svelte">
<path id="Vector" d="M19.9411 4.54633C18.5322 4.57353 17.1302 4.96483 15.8914 5.75394L9.56297 9.78683C8.70885 10.3233 7.97597 11.032 7.41112 11.8676C6.84625 12.7032 6.46184 13.6475 6.28239 14.64C5.97971 16.3153 6.24437 18.0435 7.03447 19.5514C6.49299 20.3729 6.12402 21.2958 5.94996 22.2643C5.76919 23.2787 5.79307 24.3191 6.02016 25.3242C6.24725 26.3293 6.673 27.2789 7.27234 28.1172C9.79598 31.7278 14.78 32.798 18.3834 30.5023L24.7121 26.4865C25.5653 25.9489 26.2974 25.2399 26.8621 24.4044C27.4268 23.569 27.8118 22.6254 27.9927 21.6333C28.2942 19.9587 28.0287 18.2313 27.2381 16.7244C27.7794 15.9025 28.1491 14.9798 28.3252 14.0115C28.5054 12.9971 28.4812 11.9568 28.2542 10.9518C28.0271 9.94674 27.6016 8.99715 27.0028 8.1587V8.13928C25.3467 5.76975 22.6309 4.49434 19.9411 4.54633ZM20.4962 7.64588C21.2686 7.68134 22.0223 7.89451 22.6988 8.26883C23.3753 8.64314 23.9563 9.16849 24.3967 9.80401C24.7572 10.3078 25.0135 10.8786 25.1502 11.4829C25.2868 12.0872 25.3013 12.7127 25.1926 13.3225C25.1547 13.522 25.1044 13.7189 25.0421 13.9121L24.9207 14.2762L24.5979 14.0335C23.8491 13.4837 23.0121 13.0652 22.1229 12.7959L21.8804 12.7257L21.9021 12.4829C21.9302 12.1486 21.8391 11.8151 21.645 11.5415C21.4669 11.2915 21.2168 11.1016 20.9282 10.9971C20.6395 10.8926 20.3258 10.8784 20.0289 10.9566C19.8916 10.993 19.7606 11.0503 19.6406 11.1265L13.3098 15.1522C13.1552 15.2499 13.0225 15.3787 12.9202 15.5304C12.8178 15.6819 12.748 15.8531 12.7152 16.0331C12.6835 16.2175 12.6886 16.4064 12.7303 16.5888C12.772 16.7712 12.8493 16.9436 12.9579 17.0959C13.1341 17.348 13.3828 17.5406 13.6711 17.648C13.9592 17.7555 14.2732 17.7728 14.5715 17.6976C14.7085 17.6603 14.8394 17.603 14.9598 17.5278L17.3865 15.9894C17.783 15.735 18.2168 15.5442 18.6723 15.424C19.6681 15.1646 20.7193 15.2173 21.6842 15.575C22.6489 15.9325 23.4806 16.5778 24.0667 17.4235C24.4271 17.9275 24.6831 18.4982 24.8198 19.1025C24.9564 19.7068 24.971 20.3322 24.8625 20.9421C24.7553 21.5403 24.5245 22.1096 24.1849 22.6135C23.8452 23.1173 23.4041 23.5449 22.8897 23.8685L16.5588 27.9014C16.1612 28.1538 15.7277 28.3444 15.2729 28.4667C14.2766 28.7252 13.225 28.6719 12.2598 28.314C11.2948 27.956 10.4628 27.3106 9.87611 26.4648C9.5159 25.9609 9.26013 25.39 9.12387 24.7857C8.9876 24.1815 8.97359 23.556 9.08265 22.9463C9.1184 22.748 9.16863 22.5526 9.23294 22.3616L9.35199 21.9975L9.67706 22.2402C10.4246 22.7859 11.259 23.2011 12.1451 23.468L12.3876 23.5383L12.3658 23.7811C12.3425 24.1138 12.4361 24.4442 12.6304 24.7153C12.8073 24.9698 13.0581 25.1638 13.3487 25.2714C13.6394 25.379 13.9561 25.3949 14.2561 25.3172C14.3933 25.2802 14.5241 25.223 14.6443 25.1472L20.963 21.1143C21.1182 21.0167 21.2513 20.8877 21.3537 20.7355C21.4561 20.5834 21.5256 20.4115 21.5576 20.2309C21.59 20.047 21.5852 19.8584 21.5435 19.6762C21.5017 19.4942 21.424 19.3222 21.3149 19.1707C21.1379 18.9163 20.8872 18.7222 20.5965 18.6146C20.3058 18.507 19.9891 18.491 19.6891 18.5689C19.5518 18.6052 19.4209 18.6625 19.3009 18.7385L16.8743 20.2795C16.4775 20.5311 16.0447 20.7209 15.5908 20.8425C14.5962 21.0994 13.5466 21.0456 12.5835 20.6882C11.6203 20.3307 10.7898 19.6868 10.2037 18.8431C9.8446 18.3386 9.58985 17.7676 9.45442 17.1633C9.31901 16.5592 9.30565 15.9339 9.41512 15.3245C9.52228 14.7263 9.75309 14.157 10.0928 13.6532C10.4324 13.1493 10.8735 12.7218 11.3879 12.3981L17.726 8.36522C18.1206 8.11407 18.5509 7.92425 19.0024 7.80225C19.4897 7.67566 19.9932 7.62283 20.4962 7.64588Z" fill="#DA4167"/>
</g>
</svg>
