<svg width="34" height="34" viewBox="0 0 34 34" fill="none" xmlns="http://www.w3.org/2000/svg">
<g id="tailwindcss-plain" clip-path="url(#clip0_4_159)">
<path id="Vector" d="M16.9665 6.78674C12.4423 6.78674 9.61565 9.04793 8.48373 13.5722C10.1798 11.3107 12.1597 10.4627 14.4211 11.0281C15.7124 11.3499 16.6351 12.2862 17.657 13.3238C19.3202 15.0116 21.2453 16.9655 25.4493 16.9655C29.9732 16.9655 32.8001 14.7041 33.932 10.1788C32.2358 12.4416 30.2561 13.2896 27.9944 12.7241C26.7034 12.4021 25.7817 11.466 24.7584 10.4285C23.0963 8.74069 21.1718 6.78674 16.9665 6.78674ZM8.48373 16.9655C3.95977 16.9655 1.1329 19.227 0.000976562 23.7523C1.697 21.4895 3.67666 20.6415 5.93838 21.2069C7.22961 21.529 8.15238 22.465 9.17428 23.5026C10.8374 25.1904 12.7625 27.1443 16.9665 27.1443C21.4905 27.1443 24.3173 24.8831 25.4493 20.3589C23.753 22.6203 21.7733 23.4684 19.5116 22.9029C18.2206 22.5811 17.2989 21.6448 16.2757 20.6073C14.6136 18.9195 12.6891 16.9655 8.48373 16.9655Z" fill="#DA4167"/>
</g>
<defs>
<clipPath id="clip0_4_159">
<rect width="33.931" height="33.931" fill="white"/>
</clipPath>
</defs>
</svg>
