<svg width="35" height="34" viewBox="0 0 35 34" fill="none" xmlns="http://www.w3.org/2000/svg">
<g id="typeScript">
<path id="Vector" fill-rule="evenodd" clip-rule="evenodd" d="M4.19092 3.94501V30.4015H31.4491V3.94501H4.19092ZM24.9032 16.7952C25.1645 16.796 25.4616 16.8094 25.685 16.833C26.5949 16.9285 27.3034 17.3095 27.9063 18.0272C28.2065 18.3846 28.3092 18.541 28.2873 18.6079C28.2732 18.6511 28.0672 18.7943 27.4123 19.2162C26.7691 19.6307 26.5618 19.7549 26.5137 19.7549C26.4649 19.7549 26.3632 19.6534 26.2167 19.4584C25.9345 19.083 25.6464 18.9117 25.2008 18.8545C24.7218 18.7929 24.2921 18.9395 24.0817 19.2364C23.9018 19.49 23.8747 19.8982 24.0177 20.1947C24.1832 20.5383 24.4831 20.7281 25.6322 21.2172C26.9573 21.7811 27.629 22.1672 28.1181 22.6463C28.6447 23.1622 28.9117 23.7579 28.9936 24.6005C29.0336 25.0112 28.9847 25.4979 28.8636 25.8937C28.5667 26.8638 27.7653 27.5742 26.5908 27.9085C26.2661 28.0009 25.964 28.0561 25.6651 28.0773C25.209 28.11 24.5558 28.092 24.1629 28.0364C23.1685 27.8959 22.046 27.3342 21.4862 26.6973C21.2115 26.3848 20.8606 25.8703 20.8606 25.7798C20.8606 25.7362 20.883 25.7113 20.9713 25.6569C21.2333 25.4953 22.7347 24.6623 22.7638 24.6623C22.7813 24.6623 22.8598 24.752 22.9379 24.8617C23.1151 25.1099 23.5507 25.5365 23.772 25.6788C23.9529 25.7951 24.1841 25.8884 24.4588 25.9557C24.616 25.9939 24.6993 26.0007 25.0424 26.0007C25.393 26.0005 25.465 25.9948 25.6218 25.9539C26.0367 25.8455 26.3606 25.6212 26.4977 25.3474C26.5579 25.229 26.5591 25.2143 26.5591 24.9271V24.6295L26.4854 24.4875C26.3068 24.1434 25.9219 23.9073 24.7052 23.3959C24.1463 23.1608 23.4618 22.8295 23.1946 22.6647C22.5848 22.2885 22.1621 21.8585 21.8846 21.332C21.6088 20.8086 21.5675 20.6137 21.5669 19.8266C21.5662 19.2105 21.5652 19.2179 21.6966 18.8246C21.8159 18.4678 22.06 18.0691 22.3295 17.7911C22.8674 17.2362 23.6532 16.8796 24.4945 16.8086C24.6021 16.7988 24.7464 16.7948 24.9032 16.7952ZM17.6637 16.9169C19.2841 16.9177 20.2131 16.9231 20.228 16.9323C20.2561 16.9492 20.2596 17.086 20.2596 17.9595V18.9673L18.6427 18.9729L17.0259 18.9786V23.4343C17.0259 25.885 17.0208 27.9045 17.0138 27.9224C17.0023 27.9524 16.878 27.9547 15.8259 27.9547H14.6509L14.6387 27.9086C14.6309 27.8832 14.6253 25.8636 14.6251 23.4205L14.6246 18.9784L13.0079 18.9728L11.391 18.9672V17.9713C11.391 17.1815 11.3966 16.97 11.4183 16.949C11.4405 16.9267 12.2656 16.921 15.8211 16.9175C16.5067 16.9169 17.1235 16.9166 17.6637 16.9169Z" fill="#DA4167"/>
</g>
</svg>
