<svg width="35" height="34" viewBox="0 0 35 34" fill="none" xmlns="http://www.w3.org/2000/svg">
<g id="unity-original" clip-path="url(#clip0_4_173)">
<path id="Vector" d="M22.6575 16.8537L28.6002 6.67383L31.4716 16.8537L28.6002 27.0325L22.6575 16.8537ZM19.7611 18.5073L25.7049 28.6871L15.3541 26.0569L7.87571 18.5073H19.7611ZM25.703 5.0181L19.7614 15.2001H7.87598L15.3543 7.64908L25.703 5.0181ZM34.1858 13.3901L30.5605 0.00823975L17.0297 3.59432L15.0269 7.08816L10.9616 7.05927L1.05823 16.8547L10.9616 26.6494H10.9626L15.0248 26.6194L17.0315 30.1122L30.5602 33.698L34.1855 20.3183L32.1279 16.8537L34.1858 13.3901Z" fill="#DA4167"/>
</g>
<defs>
<clipPath id="clip0_4_173">
<rect width="33.931" height="33.931" fill="white" transform="translate(0.793091)"/>
</clipPath>
</defs>
</svg>
